<svg xmlns="http://www.w3.org/2000/svg" width="240" height="144"><path style="fill:#4c4c4c;fill-opacity:1;stroke:none;stroke-width:0" d="M4 4h16v16H4z"/><path style="fill:#ec3f29;fill-opacity:.94117647;stroke:none;stroke-width:0" d="M28 4h16v16H28z"/><path style="fill:#4c4c4c;fill-opacity:1;stroke:none;stroke-width:0" d="M52 4h16v16H52zM172 4h16v16h-16zM196 4h16v16h-16z"/><g style="stroke:none"><path style="fill:#fff;fill-opacity:1;stroke:none;stroke-width:0" d="M7 11h10v2H7z"/><path style="fill:#fff;fill-opacity:1;stroke:none;stroke-width:0" d="M11 7h2v10h-2z"/></g><g style="stroke:none"><path style="fill:#fff;fill-opacity:1;stroke:none;stroke-width:0" d="M7 11h10v2H7z" transform="rotate(-45 24 -16.97)"/><path style="fill:#fff;fill-opacity:1;stroke:none;stroke-width:0" d="M11 7h2v10h-2z" transform="rotate(-45 24 -16.97)"/></g><path style="fill:#fff;fill-opacity:1;stroke:#000;stroke-width:0" d="M55 7h7v7h-7z"/><path style="fill:#fff;fill-opacity:1;stroke:#4c4c4c;stroke-width:2;stroke-miterlimit:4;stroke-dasharray:none;stroke-opacity:1" d="M58 10h7v7h-7z"/><path style="fill:#fff;fill-opacity:1;stroke:#3c80df;stroke-width:0;stroke-miterlimit:4;stroke-dasharray:none;stroke-opacity:.94117647" d="M58 10h7v7h-7z"/><path style="fill:#fff;fill-opacity:1;stroke:#000;stroke-width:0" d="M198 11h8v2h-8zM198 7h12v2h-12zM198 15h4v2h-4z"/><path style="fill:#fff;fill-opacity:1;stroke:#000;stroke-width:0" d="M198 11h8v2h-8zM198 7h12v2h-12zM198 15h4v2h-4z" transform="matrix(1 0 0 -1 -24 24)"/><path style="fill:#4c4c4c;fill-opacity:1;stroke:none" d="M76 4h16v16H76z"/><path style="fill:#fff;fill-opacity:1;stroke:#fff;stroke-width:.2;stroke-linecap:butt;stroke-linejoin:miter;stroke-miterlimit:4;stroke-dasharray:none;stroke-opacity:1" d="m85.104 6.016-.015 1.406c3.027-.24.33 3.65 2.484 4.578-2.187 1.094.492 4.907-2.453 4.578L85.105 18c5.708.56 1.032-5.1 4.703-5.265v-1.407c-3.613-.027 1.119-5.707-4.703-5.312zM82.781 5.998l.016 1.407c-3.027-.24-.33 3.65-2.485 4.578 2.187 1.094-.491 4.907 2.454 4.578l.015 1.422c-5.708.559-1.032-5.1-4.703-5.266v-1.406c3.613-.027-1.119-5.707 4.703-5.313z"/><path style="fill:#4c4c4c;fill-opacity:1;stroke:none" d="M100 4h16v16h-16z"/><path style="fill:#fff;fill-opacity:1;stroke:none" d="M103.719 5.672V18.39h3.031v-1.532h-1.344V7.234h1.375V5.672zM112.219 5.672v12.719h-3.032V16.86h1.344V7.235h-1.375V5.672z"/><path style="fill:#4c4c4c;fill-opacity:1;stroke:none" d="M124 4h16v16h-16z"/><path style="fill:#fff;fill-opacity:1;stroke:none" d="M126.282 17.603h1.79l1.141-2.864h5.654l1.149 2.864h1.765l-4.787-11.161h-1.919z"/><path style="fill:#4c4c4c;fill-opacity:1;stroke:none" d="m129.727 13.479 4.609.01-2.305-5.55zM148 4h16v16h-16z"/><path style="fill:#fff;fill-opacity:1;stroke:none" d="M156.477 5.892v2.18l.46 2.398h1.829l.398-2.399v-2.18zM152.516 5.89v2.18l.46 2.399h1.829l.398-2.399V5.89z"/><path style="fill:#4c4c4c;fill-opacity:.98431373;stroke:none;stroke-width:0" d="M54 64h12v2H54zM80 52h3v3h-3zM85 52h3v3h-3zM80 58h3v3h-3zM85 58h3v3h-3zM80 64h3v3h-3zM85 64h3v3h-3z"/><circle style="opacity:1;fill:none;fill-opacity:1;stroke:#4c4c4c;stroke-width:2;stroke-linecap:round;stroke-linejoin:round;stroke-miterlimit:4;stroke-dasharray:none" cx="110.061" cy="57.939" r="4.744"/><path style="fill:#4c4c4c;fill-opacity:.98431373;stroke:none;stroke-width:0" transform="rotate(45)" d="M116.646-31.798h4.23v6.405h-4.23z"/><path style="fill:#4c4c4c;fill-opacity:1;fill-rule:evenodd;stroke:none;stroke-width:0;stroke-linecap:butt;stroke-linejoin:miter;stroke-miterlimit:4;stroke-dasharray:none;stroke-opacity:1" d="m125 56 13.77.095L132 64ZM149 64l13.77-.095L156 56Z"/><path style="fill:#4c4c4c;fill-opacity:.98431373;stroke:none;stroke-width:0" d="M54 53h12v2H54z"/><path style="fill:#4c4c4c;fill-opacity:.98431373;stroke:none;stroke-width:0" transform="rotate(90)" d="M53-56h13v2H53zM53-66h13v2H53z"/><path style="fill:#4c4c4c;fill-opacity:.98431373;stroke:none;stroke-width:0" d="M54 57h12v1H54z"/><path style="fill:#d3d3d3;fill-opacity:1;stroke:none;stroke-width:0;stroke-opacity:1" d="M54 88h12v2H54zM80 76h3v3h-3zM85 76h3v3h-3zM80 82h3v3h-3zM85 82h3v3h-3zM80 88h3v3h-3zM85 88h3v3h-3z"/><circle r="4.744" cy="81.939" cx="110.061" style="opacity:1;fill:none;fill-opacity:1;stroke:#d3d3d3;stroke-width:2;stroke-linecap:round;stroke-linejoin:round;stroke-miterlimit:4;stroke-dasharray:none;stroke-opacity:1"/><path transform="rotate(45)" style="fill:#d3d3d3;fill-opacity:1;stroke:#d3d3d3;stroke-width:0;stroke-opacity:1" d="M133.616-14.827h4.23v6.405h-4.23z"/><path d="m125 80 13.77.095L132 88ZM149 88l13.77-.095L156 80Z" style="fill:#d3d3d3;fill-opacity:1;fill-rule:evenodd;stroke:#d3d3d3;stroke-width:0;stroke-linecap:butt;stroke-linejoin:miter;stroke-miterlimit:4;stroke-dasharray:none;stroke-opacity:1"/><path style="fill:#d3d3d3;fill-opacity:1;stroke:none;stroke-width:0;stroke-opacity:1" d="M54 77h12v2H54z"/><path transform="rotate(90)" style="fill:#d3d3d3;fill-opacity:1;stroke:none;stroke-width:0;stroke-opacity:1" d="M77-56h13v2H77zM77-66h13v2H77z"/><path style="fill:#d3d3d3;fill-opacity:1;stroke:none;stroke-width:0;stroke-opacity:1" d="M54 81h12v1H54z"/><path style="fill:#fff;fill-opacity:.8;stroke:none;stroke-width:0" d="M76 101h16v2H76zM76 105h16v2H76zM76 109h9v2h-9zM76 125h12v2H76zM76 137h10v2H76zM82 129h10v2H82zM82 133h9v2h-9z"/><path style="color:#000;font-style:normal;font-variant:normal;font-weight:400;font-stretch:normal;font-size:medium;line-height:normal;font-family:sans-serif;text-indent:0;text-align:start;text-decoration:none;text-decoration-line:none;text-decoration-style:solid;text-decoration-color:#000;letter-spacing:normal;word-spacing:normal;text-transform:none;direction:ltr;block-progression:tb;writing-mode:lr-tb;baseline-shift:baseline;text-anchor:start;white-space:normal;clip-rule:nonzero;display:inline;overflow:visible;visibility:visible;opacity:.8;isolation:auto;mix-blend-mode:normal;color-interpolation:sRGB;color-interpolation-filters:linearRGB;solid-color:#000;solid-opacity:1;fill:#fff;fill-opacity:1;fill-rule:nonzero;stroke:none;stroke-width:2.66157866;stroke-linecap:butt;stroke-linejoin:miter;stroke-miterlimit:4;stroke-dasharray:none;stroke-dashoffset:0;stroke-opacity:1;color-rendering:auto;image-rendering:auto;shape-rendering:auto;text-rendering:auto;enable-background:accumulate" d="M36.398 100.025a8.228 8.228 0 0 0-1.265.062 7.861 7.861 0 0 0-4.508 2.227L29 100.599l-2.324 7.713 7.826-1.906-1.805-1.906a5.026 5.026 0 0 1 5.985-.721 4.915 4.915 0 0 1 2.308 5.55 4.988 4.988 0 0 1-4.83 3.696v3.074c3.55 0 6.71-2.411 7.65-5.941.94-3.53-.618-7.274-3.71-9.07a7.839 7.839 0 0 0-3.702-1.063zM59.723 99.963a7.834 7.834 0 0 0-3.702 1.062c-3.092 1.797-4.65 5.54-3.71 9.07.94 3.53 4.097 5.942 7.648 5.942v-3.074a4.988 4.988 0 0 1-4.83-3.695 4.915 4.915 0 0 1 2.309-5.551 5.029 5.029 0 0 1 5.986.72l-1.807 1.907 7.828 1.906-2.324-7.713-1.627 1.717a7.856 7.856 0 0 0-4.506-2.229 7.754 7.754 0 0 0-1.265-.062z"/><path style="opacity:.8;fill:#fff;fill-opacity:1;stroke:none;stroke-width:1.96599996;stroke-miterlimit:4;stroke-dasharray:none" d="M10.5 100v2H8l4 5 4-5h-2.5v-2h-3z"/><path style="opacity:.8;fill:none;stroke:#fff;stroke-width:1.96599996;stroke-linecap:square;stroke-linejoin:miter;stroke-miterlimit:4;stroke-dasharray:none;stroke-opacity:1" d="m4.985 108.015 14.03-.03M4.985 132.015l14.03-.03"/><path style="color:#000;font-style:normal;font-variant:normal;font-weight:400;font-stretch:normal;font-size:medium;line-height:normal;font-family:sans-serif;text-indent:0;text-align:start;text-decoration:none;text-decoration-line:none;text-decoration-style:solid;text-decoration-color:#000;letter-spacing:normal;word-spacing:normal;text-transform:none;direction:ltr;block-progression:tb;writing-mode:lr-tb;baseline-shift:baseline;text-anchor:start;white-space:normal;clip-rule:nonzero;display:inline;overflow:visible;visibility:visible;opacity:.4;isolation:auto;mix-blend-mode:normal;color-interpolation:sRGB;color-interpolation-filters:linearRGB;solid-color:#000;solid-opacity:1;fill:#4d4d4d;fill-opacity:1;fill-rule:nonzero;stroke:none;stroke-width:2.66157866;stroke-linecap:butt;stroke-linejoin:miter;stroke-miterlimit:4;stroke-dasharray:none;stroke-dashoffset:0;stroke-opacity:1;color-rendering:auto;image-rendering:auto;shape-rendering:auto;text-rendering:auto;enable-background:accumulate" d="M36.398 123.963a8.228 8.228 0 0 0-1.265.062 7.861 7.861 0 0 0-4.508 2.226L29 124.538l-2.324 7.713 7.826-1.907-1.805-1.906a5.026 5.026 0 0 1 5.985-.72 4.915 4.915 0 0 1 2.308 5.55 4.988 4.988 0 0 1-4.83 3.695v3.075c3.55 0 6.71-2.41 7.65-5.94.94-3.53-.618-7.275-3.71-9.072a7.84 7.84 0 0 0-3.702-1.063zM59.723 123.963a7.835 7.835 0 0 0-3.702 1.062c-3.092 1.797-4.65 5.543-3.71 9.073.94 3.53 4.097 5.94 7.648 5.94v-3.075a4.988 4.988 0 0 1-4.83-3.695 4.915 4.915 0 0 1 2.309-5.551 5.029 5.029 0 0 1 5.986.72l-1.807 1.907 7.828 1.906-2.324-7.713-1.627 1.717a7.856 7.856 0 0 0-4.506-2.229 7.754 7.754 0 0 0-1.265-.062z"/><path d="M10.5 116v-2H8l4-5 4 5h-2.5v2h-3zM10.5 129v-2H8l4-5 4 5h-2.5v2h-3zM10.5 135v2H8l4 5 4-5h-2.5v-2h-3z" style="opacity:.8;fill:#fff;fill-opacity:1;stroke:none;stroke-width:1.96599996;stroke-miterlimit:4;stroke-dasharray:none"/><path style="fill:#4d4d4d;fill-opacity:.90196078;stroke:#d3d3d3;stroke-width:0;stroke-linecap:round;stroke-linejoin:round;stroke-miterlimit:4;stroke-dasharray:none" d="m16.667 60.073-3.833 2.214L9 64.5v-8.854l3.834 2.214z"/><path d="m-31.5 60.073-3.834 2.214-3.833 2.213v-8.854l3.833 2.214z" style="fill:#4d4d4d;fill-opacity:.90196078;stroke:#d3d3d3;stroke-width:0;stroke-linecap:round;stroke-linejoin:round;stroke-miterlimit:4;stroke-dasharray:none" transform="scale(-1 1)"/><path d="m16.667 60.073-3.833 2.214L9 64.5v-8.854l3.834 2.214z" style="fill:#4d4d4d;fill-opacity:.90196078;stroke:#d3d3d3;stroke-width:0;stroke-linecap:round;stroke-linejoin:round;stroke-miterlimit:4;stroke-dasharray:none" transform="rotate(90 .11 71.898)"/><path transform="matrix(0 -1 -1 0 96 96)" style="fill:#4d4d4d;fill-opacity:.90196078;stroke:#d3d3d3;stroke-width:0;stroke-linecap:round;stroke-linejoin:round;stroke-miterlimit:4;stroke-dasharray:none" d="m16.667 60.073-3.833 2.214L9 64.5v-8.854l3.834 2.214z"/><path d="M171.826 65.174h16.348L180 51.826z" style="fill:#fbb917;fill-opacity:1;fill-rule:evenodd;stroke:#fbb917;stroke-width:1.65161395;stroke-linecap:butt;stroke-linejoin:round;stroke-miterlimit:4;stroke-dasharray:none;stroke-opacity:1"/><path style="opacity:1;fill:#fff;fill-opacity:1;fill-rule:evenodd;stroke:none;stroke-width:1px;stroke-linecap:butt;stroke-linejoin:miter;stroke-opacity:1" d="M179 55v6h2v-6M179 62v2h2v-2"/><path style="fill:#fff;fill-opacity:.8;fill-rule:evenodd;stroke:#fff;stroke-width:1px;stroke-linecap:butt;stroke-linejoin:round;stroke-opacity:.8" d="m99.994 113.022 2.006 1.962 7-6.956 3 .972 2-1 1-2v-3l-3 3-3-3 3-3h-3l-2 1-1 2 .994 3.022z"/><path style="fill:#4c4c4c;fill-opacity:1;stroke:none;stroke-width:0" d="M220 4h16v16h-16z"/><path style="fill:#fff;fill-rule:evenodd;stroke:none;stroke-width:1px;stroke-linecap:butt;stroke-linejoin:miter;stroke-opacity:1" d="M234 6v2l-5 5v5h-2v-5l-5-5V6"/><g><path style="fill:#fff;fill-opacity:.8;stroke:#000;stroke-width:0" d="M198 12.625h6v1.25h-6zM198 15.125h7.5v1.25H198zM198 7.625h3v1.25h-3zM198 10.125h4.5v1.25H198z" transform="matrix(1.33333 0 0 -1.6 -140 127.2)"/><path style="fill:#fff;fill-opacity:.8;fill-rule:evenodd;stroke:none;stroke-width:.68465352px;stroke-linecap:butt;stroke-linejoin:miter;stroke-opacity:1" d="M207 16.375V10.75h-2.25l3-3.125 3 3.125h-2.25v5.625H207" transform="matrix(1.33333 0 0 -1.6 -140 127.2)"/></g><path style="fill:#fff;fill-opacity:.8;fill-rule:evenodd;stroke:none;stroke-width:1px;stroke-linecap:butt;stroke-linejoin:miter;stroke-opacity:1" d="M164 100v3l-6 6v7h-4v-7l-6-6v-3"/><path style="fill:#4c4c4c;fill-opacity:1;stroke:none;stroke-width:0" d="M4 28h16v16H4z"/><path d="M15 41v-7h-4v3l-5-4 5-4v3h6v9" style="fill:#fff;fill-opacity:1;fill-rule:evenodd;stroke:none;stroke-width:.68465352px;stroke-linecap:butt;stroke-linejoin:miter;stroke-opacity:1"/></svg>